# xmcd
#
# Track frame offsets: 
#        150
#        21642
#        41175
#        62285
#        79375
#        98227
#        118105
#        146072
#        159235
#        178387
#        197712
#
# Disc length: 2887 seconds
#
# Revision: 1
# Processed by: cddbd v1.5.2PL0 Copyright (c) Steve Scherf et al.
# Submitted via: ExactAudioCopy v0.99pb3
#
DISCID=9f0b450b
DTITLE=Olav Larsen and The Alabama Rodeo Stars - Sad and Happy Sing-A-Long
DTITLE=s
DYEAR=2008
DGENRE=Country
TTITLE0=Everything Will Be Fine [duet with Straumstøyl]
TTITLE1=The Murder Ballad Of Mary (Love's Left Town)
TTITLE2=We Cried For A While [duet with Mazz Swift]
TTITLE3=I Can't Get You Out Of My Mind [duet with Benedicte Brænden]
TTITLE4=Don't Cry
TTITLE5=I Can Make It Better (I Swear)
TTITLE6=I'll Do Anything For You
TTITLE7=I'm Gonna Change This World
TTITLE8=Oh Mary! (A Stupid Sing-A-Long)
TTITLE9=By My Side
TTITLE10=Sing Your Own Song! God Dammit!
EXTD=
EXTT0=
EXTT1=
EXTT2=
EXTT3=
EXTT4=
EXTT5=
EXTT6=
EXTT7=
EXTT8=
EXTT9=
EXTT10=
PLAYORDER=
